<?xml version="1.0" encoding="utf-8"?>
<!-- Generator: Adobe Illustrator 19.2.1, SVG Export Plug-In . SVG Version: 6.00 Build 0)  -->
<svg version="1.1" id="Lag_1" xmlns="http://www.w3.org/2000/svg" xmlns:xlink="http://www.w3.org/1999/xlink" x="0px" y="0px"
	 viewBox="0 0 220 49" style="enable-background:new 0 0 220 49;" xml:space="preserve">
<style type="text/css">
	.st0{fill:#262624;}
	.st1{fill:#E8610C;}
</style>
<g>
	<path class="st0" d="M0,47.4V1.8h26.9v3.7H4.1v18.8h19.4v3.6H4.1v19.5H0z"/>
	<path class="st0" d="M34.1,47.4V0h3.9v47.4H34.1z"/>
	<path class="st0" d="M69.9,44.1l2-0.2l0.1,3.2c-4.9,0.6-9.1,0.9-12.5,0.9c-4.7,0-8-1.4-9.9-4.2c-1.9-2.8-2.8-7-2.8-12.7
		c0-11.5,4.5-17.2,13.5-17.2c4.3,0,7.6,1.2,9.7,3.7c2.1,2.5,3.2,6.4,3.2,11.8L73,32.6H50.7c0,4,0.7,7,2.1,9c1.4,1.9,3.7,2.9,7.1,2.9
		C63.2,44.5,66.6,44.4,69.9,44.1z M50.7,29.3h18.5c0-4.3-0.7-7.4-2.1-9.3c-1.4-1.8-3.7-2.8-6.8-2.8c-3.1,0-5.5,1-7.1,2.9
		C51.5,22.1,50.7,25.1,50.7,29.3z"/>
	<path class="st0" d="M77.6,14.6H82l8.7,13.5l8.7-13.5h4.4L93,30.9l10.6,16.5h-4.3l-8.7-13.5L82,47.4h-4.4L88.1,31L77.6,14.6z"/>
	<path class="st1" d="M126.5,34.4h-7.4v13h-9.1V2.8h16.4c10.6,0,15.9,5.2,15.9,15.5c0,5.2-1.3,9.2-4,12
		C135.7,33,131.7,34.4,126.5,34.4z M119.2,26.6h7.3c4.5,0,6.8-2.8,6.8-8.4c0-2.8-0.5-4.7-1.6-5.9c-1.1-1.2-2.8-1.8-5.1-1.8h-7.3
		V26.6z"/>
	<path class="st1" d="M179.7,42.6c-2.8,3.7-7.6,5.5-14.3,5.5c-6.8,0-11.6-1.8-14.3-5.5c-2.8-3.7-4.2-9.5-4.2-17.4
		c0-7.9,1.4-13.7,4.2-17.6c2.8-3.8,7.6-5.7,14.3-5.7c6.8,0,11.6,1.9,14.3,5.7c2.8,3.8,4.2,9.7,4.2,17.6
		C183.8,33.1,182.4,38.9,179.7,42.6z M158.1,36.9c1.3,2.3,3.7,3.4,7.3,3.4c3.5,0,6-1.1,7.3-3.4c1.3-2.3,1.9-6.1,1.9-11.6
		c0-5.4-0.7-9.3-2-11.8c-1.3-2.4-3.7-3.7-7.2-3.7c-3.5,0-5.9,1.2-7.2,3.7c-1.3,2.5-2,6.4-2,11.8C156.1,30.7,156.8,34.6,158.1,36.9z"
		/>
	<path class="st1" d="M205.3,9.8c-4.8,0-7.2,1.6-7.2,4.7c0,1.4,0.6,2.5,1.8,3.2c1.2,0.7,3.9,1.8,8.3,3.2c4.4,1.4,7.4,3,9.2,4.8
		c1.7,1.8,2.6,4.5,2.6,8.2c0,4.7-1.4,8.2-4.3,10.6c-2.8,2.4-6.6,3.6-11.2,3.6c-3.4,0-7.6-0.5-12.5-1.6l-2.4-0.5l0.9-7
		c5.9,0.8,10.3,1.2,13.5,1.2c4.6,0,7-1.9,7-5.8c0-1.4-0.5-2.5-1.6-3.3c-1.1-0.8-3.2-1.6-6.4-2.6c-5.1-1.4-8.7-3.2-10.7-5.2
		c-2.1-2-3.1-4.8-3.1-8.3c0-4.5,1.4-7.8,4.1-10c2.7-2.2,6.4-3.3,11.2-3.3c3.2,0,7.4,0.4,12.3,1.3l2.4,0.5l-0.7,7.2
		C212.2,10.2,207.8,9.8,205.3,9.8z"/>
</g>
</svg>
